<svg width="87" height="100" viewBox="0 0 87 100" fill="none" xmlns="http://www.w3.org/2000/svg">
<path d="M43.2702 0L0 25.0249V74.9751L43.2702 100L86.5404 74.9751V25.0249L43.2702 0ZM43.2702 0L0 25.0249V74.9751L43.2702 100L86.5404 74.9751V25.0249L43.2702 0Z" fill="white"/>
<path d="M60.319 80.3589H54.1376L46.7597 73.5793V70.0897L54.4367 62.8116V51.2463L64.4068 44.7657L75.7727 53.34L60.319 80.3589ZM34.7956 62.2134L35.8923 51.346L32.2034 41.675H54.2373L50.5484 51.346L51.5454 62.2134H43.0708H34.7956ZM39.8804 73.5793L32.5025 80.4586H26.2213L10.668 53.4397L22.1336 44.9651L32.2034 51.346V62.9113L39.8804 70.1894C39.8804 70.1894 39.8804 73.5793 39.8804 73.5793ZM26.1216 21.6351H60.2193L64.3071 38.983H22.1336L26.1216 21.6351ZM43.2702 0L0 25.0249V74.9751L43.2702 100L86.5404 74.9751V25.0249L43.2702 0Z" fill="#03316C"/>
</svg>
