<svg width="48" height="48" viewBox="0 0 48 48" fill="none" xmlns="http://www.w3.org/2000/svg">
<g clip-path="url(#clip0_343:309)">
<path d="M24.0038 48.0075C37.2607 48.0075 48.0075 37.2607 48.0075 24.0038C48.0075 10.7468 37.2607 0 24.0038 0C10.7468 0 0 10.7468 0 24.0038C0 37.2607 10.7468 48.0075 24.0038 48.0075Z" fill="white"/>
<path d="M24.0038 1.2666C11.4432 1.2666 1.2666 11.4432 1.2666 24.0038C1.2666 36.5644 11.4432 46.7336 23.9964 46.7336C36.5495 46.7336 46.7262 36.557 46.7262 24.0038C46.7262 11.4507 36.557 1.2666 24.0038 1.2666ZM24.5328 4.44028C24.6147 4.39558 24.7637 4.37323 24.8308 4.41793C25.2629 4.72338 25.6801 5.05117 26.0898 5.35662C25.397 5.75147 24.6967 6.11652 24.0336 6.54116C23.46 6.90621 22.931 7.34576 22.4021 7.76295C22.2382 7.89705 22.119 7.9343 21.9328 7.8002C21.5677 7.53946 21.1803 7.30106 20.7706 7.02541C21.9849 6.01222 23.2067 5.14802 24.5328 4.44028ZM8.01625 27.6618C8.277 28.1013 8.53775 28.526 8.8134 28.9953C8.65695 29.1145 8.52285 29.2188 8.34405 29.3529C8.07585 28.8836 7.82255 28.4291 7.55436 27.9598C7.7257 27.848 7.8598 27.7661 8.01625 27.6618ZM7.14461 25.5385C6.95836 25.6279 6.74976 25.7322 6.51136 25.8514C6.25062 25.1586 5.99732 24.4806 5.73657 23.7729C5.98242 23.6462 6.20592 23.5345 6.46666 23.4004C6.69761 24.1305 6.92111 24.8159 7.14461 25.5385ZM4.99157 17.2095C5.27467 16.9934 5.50562 16.7103 5.77382 16.4496C5.87812 17.6714 5.98987 18.8783 6.08672 20.0852C6.09417 20.1522 6.03457 20.2491 5.97497 20.2863C5.69187 20.4949 5.39387 20.6961 5.05117 20.9345C4.93198 20.2416 4.82023 19.6009 4.71593 18.9602C4.67868 18.7293 4.68613 18.4834 4.62653 18.2674C4.49243 17.8055 4.63398 17.4926 4.99157 17.2095ZM41.3101 14.7957C41.5038 15.3693 41.6602 15.9504 41.8316 16.539C40.796 16.39 39.8126 16.2261 38.8218 16.1069C38.1215 16.0249 37.4137 15.9877 36.706 15.9504C36.5123 15.943 36.408 15.8834 36.3186 15.6897C36.0951 15.198 35.8344 14.7287 35.5736 14.2221C36.4452 14.2221 37.2945 14.1774 38.1438 14.237C39.0974 14.2966 40.0361 14.4456 40.9823 14.5797C41.1015 14.5946 41.2728 14.6989 41.3101 14.7957ZM40.1479 10.6982C39.4997 10.6982 38.8441 10.6684 38.196 10.7057C33.9719 10.9366 29.8595 11.6071 26.0749 13.6559C21.1878 16.2931 17.8427 20.2416 16.0473 25.4938C15.4438 27.252 15.1608 29.0698 15.2352 30.9323C15.265 31.7145 15.2576 31.6996 16.0324 31.5581C16.39 31.491 16.6135 31.3048 16.7625 30.9993C16.8742 30.7684 16.9785 30.5225 17.0679 30.2841C18.0364 27.8182 19.4892 25.6875 21.5156 23.974C23.6313 22.186 26.0526 20.9345 28.7197 20.182C31.1558 19.4892 33.6441 19.1241 36.1696 19.2508C37.5702 19.3253 38.9633 19.6233 40.3565 19.8244C41.9359 20.0554 43.3066 20.7855 44.6402 21.5901C44.737 21.6497 44.8413 21.7838 44.8488 21.8955C45.266 26.6635 44.2677 31.1111 41.69 35.1639C39.0825 39.2613 35.4693 42.1147 30.895 43.7462C28.2727 44.6849 25.5534 45.0648 22.7746 44.886C16.8593 44.4986 11.9349 42.0625 8.04605 37.5776C7.27871 36.6911 6.62311 35.7151 5.92282 34.7765C5.95262 34.7467 5.97497 34.7243 6.00477 34.6945C6.46666 34.9329 6.93601 35.1639 7.39046 35.4097C9.07414 36.3409 10.8919 36.6166 12.7768 36.4601C14.2519 36.3335 15.6152 35.8195 16.8966 35.0819C16.8966 34.2326 16.8891 33.3759 16.8891 32.5266C15.7046 33.1971 14.4381 33.6366 13.0897 33.8378C10.9068 34.1656 8.8134 33.9719 6.92856 32.6905C5.55032 31.7518 4.48498 30.5151 3.65803 29.0847C3.49414 28.8016 3.47179 28.4217 3.40474 28.0864C3.08439 26.4623 2.93539 24.8233 3.00989 23.1694C3.01734 23.0428 3.03224 22.9087 3.03969 22.8267C3.48669 24.0038 3.85918 25.2405 4.42538 26.3804C5.53542 28.6526 7.10736 30.5672 9.17099 32.0572C9.90854 32.5862 10.7504 32.8991 11.6369 33.0257C12.1808 33.1077 12.6427 32.7873 13.0375 32.4446C12.5458 31.8859 12.0541 31.3793 11.622 30.8205C10.5343 29.4274 9.87129 27.8108 9.34234 26.1494C8.7389 24.2273 8.44835 22.2382 8.4409 20.2193C8.43345 18.5207 8.47815 16.8221 8.59735 15.1235C8.76125 12.8438 9.24549 10.6237 10.0948 8.49305C10.1916 8.2472 10.3481 8.00135 10.5492 7.83745C13.2834 5.54287 16.4049 4.06033 19.8915 3.35259C19.9809 3.33769 20.0777 3.33024 20.1746 3.32279C19.4072 3.88898 18.625 4.40303 17.8949 4.99157C14.8032 7.48731 12.6576 10.6312 11.4656 14.4307C10.7429 16.7178 10.4896 19.0571 10.6014 21.4411C10.7131 23.8921 11.0558 26.3208 11.7859 28.675C12.1361 29.8222 12.6427 30.9099 13.3504 31.8933C13.6559 32.318 13.6708 32.3254 14.1625 32.1466C14.1774 32.1392 14.1848 32.1392 14.1997 32.1392C14.7659 31.9306 14.7212 31.9306 14.6616 31.3197C14.5871 30.4555 14.5499 29.5838 14.5648 28.7197C14.5946 26.7305 14.7883 24.7637 15.2874 22.8342C16.0473 19.884 17.3361 17.202 19.437 14.9745C21.4485 12.8364 23.8623 11.2644 26.589 10.1544C28.7271 9.28274 30.9248 8.6346 33.1896 8.23975C34.4636 8.01625 35.7673 7.9343 37.0636 7.82255C37.2424 7.80765 37.4808 7.9045 37.6223 8.0237C38.561 8.7985 39.4029 9.66269 40.1702 10.6088C40.1553 10.6312 40.1553 10.6684 40.1479 10.6982ZM32.169 16.1814C31.0068 16.4272 29.8595 16.6656 28.7197 16.9264C28.5185 16.9711 28.377 16.9711 28.2354 16.7997C27.997 16.5166 27.7288 16.2633 27.4308 15.9504C28.1758 15.6897 28.9134 15.414 29.6583 15.1682C30.0904 15.0267 30.5374 14.9298 30.977 14.8032C31.1707 14.751 31.3122 14.7957 31.4165 14.9671C31.6698 15.3917 31.938 15.8089 32.169 16.1814ZM25.6056 17.9545C24.7637 18.5207 23.9219 19.0794 23.0502 19.6605C22.8565 19.5339 22.6107 19.3774 22.3201 19.1837C22.5809 18.9602 22.8044 18.7367 23.0577 18.5505C23.5717 18.1631 24.1007 17.798 24.6147 17.4181C24.7935 17.284 24.9276 17.284 25.0841 17.4628C25.248 17.6565 25.4417 17.8055 25.6056 17.9545ZM21.4858 21.2474C21.076 21.7465 20.6886 22.2158 20.2714 22.7224C20.033 22.5809 19.8244 22.4617 19.5637 22.3127C19.9734 21.7912 20.3608 21.2846 20.7706 20.7557C21.0313 20.9345 21.2623 21.0909 21.4858 21.2474ZM19.1837 24.354C18.9081 24.7786 18.6473 25.1958 18.3791 25.613C18.1854 25.546 18.0141 25.4864 17.798 25.4044C18.0439 24.9202 18.2823 24.4434 18.543 23.9442C18.7665 24.0858 18.9602 24.2124 19.1837 24.354ZM17.4255 27.3116C17.2393 27.7139 17.0679 28.0864 16.8742 28.4887C16.7774 28.4738 16.6582 28.4589 16.5017 28.4291C16.6507 27.9821 16.7997 27.5575 16.9487 27.103C17.1424 27.185 17.284 27.2446 17.4255 27.3116ZM9.29764 30.5449C9.43919 30.4555 9.55094 30.381 9.67759 30.299C9.93834 30.5076 10.2065 30.7237 10.5045 30.9546C10.4151 31.0589 10.3257 31.1632 10.214 31.2973C9.90854 31.0515 9.61799 30.8056 9.29764 30.5449ZM18.692 11.0335C18.0513 11.92 17.433 12.7917 16.7923 13.6559C16.7401 13.7229 16.606 13.7676 16.5241 13.7602C16.1218 13.6931 15.7269 13.6037 15.2278 13.5069C15.9132 12.5309 16.5539 11.5997 17.2169 10.6759C17.2691 10.6014 17.4628 10.5641 17.5596 10.6014C17.9396 10.728 18.3195 10.8845 18.692 11.0335ZM12.6427 23.8623C12.6427 23.1918 12.6427 22.5436 12.6427 21.8732C12.9556 21.8732 13.2089 21.8732 13.4696 21.8732C13.4175 22.5138 13.3728 23.1471 13.3206 23.8027C13.0971 23.825 12.8662 23.8474 12.6427 23.8623ZM13.2759 26.1941C13.2759 26.656 13.2759 27.1105 13.2759 27.5947C13.194 27.6245 13.0748 27.6767 12.9034 27.7437C12.8364 27.2446 12.7693 26.7603 12.6948 26.2314C12.9183 26.2165 13.0748 26.209 13.2759 26.1941ZM13.0226 19.2135C13.3057 18.2748 13.5739 17.3585 13.8496 16.4496C14.2891 16.4943 14.6616 16.5315 15.049 16.5762C14.7436 17.4106 14.4605 18.2227 14.155 19.0273C14.1252 19.1092 14.0135 19.2061 13.9315 19.2135C13.6484 19.2284 13.3653 19.2135 13.0226 19.2135Z" fill="#434750"/>
<path d="M37.6146 8.00853C37.4656 7.88933 37.2346 7.79249 37.0558 7.80738C35.7595 7.92658 34.4558 8.00108 33.1819 8.22458C30.9171 8.62688 28.7193 9.26757 26.5812 10.1392C23.8545 11.2567 21.4482 12.8286 19.4293 14.9593C17.3284 17.1869 16.0395 19.8688 15.2796 22.819C14.7805 24.7486 14.5868 26.7228 14.557 28.7045C14.5421 29.5687 14.5794 30.4403 14.6538 31.3045C14.706 31.9229 14.7581 31.9154 14.192 32.124C14.1771 32.1315 14.1696 32.1315 14.1547 32.1315C13.6705 32.3103 13.6481 32.3028 13.3427 31.8782C12.6349 30.8948 12.1358 29.8071 11.7782 28.6598C11.0555 26.3056 10.7054 23.8769 10.5936 21.4259C10.4819 19.0494 10.7426 16.7026 11.4578 14.4155C12.6498 10.6235 14.7954 7.47214 17.8871 4.97641C18.6172 4.38786 19.3995 3.87381 20.1743 3.30762C20.07 3.31507 19.9806 3.32252 19.8912 3.33742C16.3971 4.04516 13.2756 5.5277 10.5415 7.81484C10.3478 7.97873 10.1839 8.23203 10.087 8.47043C9.23774 10.6011 8.74604 12.8212 8.58959 15.1009C8.4704 16.792 8.4257 18.4981 8.43315 20.1966C8.4406 22.2081 8.73114 24.1973 9.33459 26.1268C9.85609 27.7956 10.5266 29.4048 11.6143 30.7979C12.0464 31.3492 12.5381 31.8558 13.0298 32.422C12.6275 32.7722 12.173 33.0851 11.6292 33.0031C10.7426 32.8765 9.90078 32.5636 9.16324 32.0346C7.09961 30.5446 5.52767 28.63 4.41762 26.3578C3.85888 25.2105 3.48638 23.9738 3.03193 22.8041C3.02448 22.8861 3.00958 23.0127 3.00214 23.1468C2.93509 24.8007 3.08408 26.4397 3.39698 28.0638C3.46403 28.399 3.48638 28.779 3.65028 29.0621C4.48467 30.4925 5.54257 31.7292 6.92081 32.6679C8.80564 33.9492 10.8991 34.1355 13.0819 33.8151C14.4229 33.614 15.6968 33.1745 16.8814 32.504C16.8888 32.1836 17.0676 31.9974 17.3433 31.8484C18.2596 31.379 19.1611 30.8948 20.0625 30.4031C20.1817 30.336 20.3009 30.187 20.3382 30.0604C20.6213 29.0993 20.8969 28.1383 21.1577 27.1698C21.3365 26.5068 21.8132 26.0747 22.29 25.6426C23.5342 24.5102 25.0167 23.8248 26.611 23.3331C27.0953 23.1841 27.4976 23.3927 27.7285 23.6832C27.8328 23.8173 27.8999 23.9812 27.9446 24.1451C28.4586 25.8959 28.8683 27.6764 29.0099 29.4867C29.1216 30.9097 28.9801 32.3624 28.9428 33.7928C28.9279 34.2249 28.8609 34.657 28.8162 35.0891C28.7193 36.0427 28.1383 36.7206 27.4976 37.3464C26.6408 38.1883 25.6053 38.7843 24.5325 39.3132C22.9754 40.0806 21.3961 40.7883 19.6751 41.0937C18.9599 41.2204 18.2298 41.2651 17.4997 41.3247C17.1347 41.3545 16.9112 41.0863 16.9112 40.684C16.9112 38.9705 16.9112 37.257 16.9112 35.5435C16.9112 35.3796 16.9037 35.2232 16.8963 35.0593C15.6149 35.7968 14.2516 36.3109 12.7765 36.4375C10.8916 36.594 9.07384 36.3258 7.39015 35.3871C6.93571 35.1338 6.46636 34.9103 6.00446 34.6719C5.97466 34.7017 5.95231 34.724 5.92251 34.7538C6.63026 35.6925 7.28585 36.6685 8.04575 37.555C11.9346 42.0324 16.8665 44.4686 22.7743 44.8634C25.5457 45.0497 28.2649 44.6623 30.8947 43.7236C35.469 42.092 39.0822 39.2387 41.6897 35.1412C44.2674 31.0885 45.2657 26.6409 44.8485 21.8729C44.841 21.7611 44.7367 21.627 44.6399 21.5674C43.2989 20.7628 41.9281 20.0253 40.3562 19.8018C38.963 19.6007 37.5699 19.3027 36.1693 19.2282C33.6438 19.1015 31.148 19.4666 28.7193 20.1594C26.0523 20.9118 23.631 22.1634 21.5152 23.9514C19.4889 25.6649 18.0361 27.7956 17.0676 30.2615C16.9708 30.4999 16.8739 30.7383 16.7622 30.9767C16.6132 31.2822 16.3897 31.4759 16.0321 31.5355C15.2647 31.677 15.2647 31.6919 15.2349 30.9097C15.1679 29.0472 15.451 27.2294 16.047 25.4712C17.8424 20.219 21.1875 16.2705 26.0746 13.6332C29.8592 11.592 33.9716 10.9215 38.1957 10.6831C38.8438 10.6458 39.4994 10.6756 40.1476 10.6756C40.155 10.6384 40.155 10.6011 40.1625 10.5713C39.3951 9.65497 38.5533 8.78333 37.6146 8.00853ZM10.8469 38.7694C10.4372 38.7545 10.0721 38.382 10.0796 37.9722C10.087 37.5476 10.4446 37.2123 10.8767 37.2198C11.3163 37.2272 11.6441 37.5699 11.6366 38.002C11.6292 38.4267 11.2641 38.7843 10.8469 38.7694ZM15.4063 40.5424C15.1306 41.0863 14.5347 41.3992 13.9983 41.2949C13.4246 41.1757 12.9404 40.6467 12.8882 40.0508C12.8435 39.5814 12.9329 39.1419 13.1788 38.7321C13.3501 38.449 13.5364 38.1734 13.7152 37.8828C13.8865 37.6072 14.043 37.3315 14.2441 37.0037C14.6538 37.7338 15.0561 38.4118 15.4212 39.1121C15.6596 39.5814 15.6521 40.0731 15.4063 40.5424ZM18.878 43.7161C18.3639 43.6938 17.9765 43.2691 18.0063 42.7551C18.0287 42.2485 18.4608 41.8611 18.9748 41.8834C19.4889 41.9058 19.8688 42.3304 19.8465 42.8445C19.8241 43.3511 19.3995 43.731 18.878 43.7161ZM24.3164 43.7161C23.5342 43.7161 22.9456 43.1127 22.9531 42.3155C22.9605 41.5556 23.5714 40.9447 24.3313 40.9522C25.0912 40.9596 25.7319 41.6152 25.7096 42.3677C25.6947 43.1276 25.0763 43.7236 24.3164 43.7161ZM29.7847 42.5167C28.6597 42.5167 27.7509 41.6003 27.7583 40.4829C27.7583 39.3579 28.6746 38.449 29.7921 38.4565C30.9096 38.4639 31.8334 39.3803 31.8334 40.4903C31.826 41.5929 30.8947 42.5167 29.7847 42.5167ZM35.6776 38.9109C33.7704 39.2238 32.1314 38.1436 31.4013 36.3481C30.7755 34.8134 30.9692 33.2713 31.6844 31.8186C32.1016 30.9693 32.6604 30.1796 33.1521 29.3675C33.8002 28.3022 34.4558 27.2368 35.1263 26.1566C35.402 26.6558 35.6925 27.1847 35.9979 27.7062C36.7206 28.9354 37.4581 30.1498 38.1733 31.3865C38.6278 32.1687 38.9779 33.0031 39.1046 33.912C39.3877 36.0799 38.1063 38.5161 35.6776 38.9109ZM40.8777 31.8558C40.1103 31.8558 39.5069 31.2524 39.4994 30.4925C39.492 29.7102 40.0954 29.0993 40.8777 29.0993C41.6599 29.0993 42.2708 29.7177 42.2633 30.4999C42.2559 31.2524 41.6376 31.8558 40.8777 31.8558ZM31.1704 22.968C32.1016 22.4093 33.0329 21.8431 33.979 21.2918C34.128 21.2024 34.3217 21.1428 34.4931 21.1428C36.7504 21.1651 39.0077 21.2098 41.2651 21.2396C41.429 21.2396 41.5854 21.2471 41.6748 21.3514C41.7195 21.3961 41.7493 21.4631 41.7642 21.5525C41.8685 21.776 41.9877 21.9921 42.1069 22.2081C42.1889 22.3497 42.2634 22.4987 42.3453 22.6402C42.7848 23.4299 43.2244 24.2271 43.4032 25.136C43.5596 25.9033 43.351 26.6185 42.7997 27.1847C42.2261 27.7732 41.4066 27.7807 40.8106 27.207C40.1476 26.5664 40.0507 25.7543 40.2072 24.905C40.2817 24.5102 40.4679 24.1377 40.602 23.7503C38.814 23.7801 37.0335 23.8024 35.2455 23.8471C35.0742 23.8546 34.8879 23.9365 34.7464 24.0334C33.532 24.9125 32.3251 25.799 31.1108 26.6856C30.7308 25.6873 30.3583 24.6964 29.9635 23.6683C30.3509 23.4597 30.7606 23.2139 31.1704 22.968ZM28.3543 23.6534C28.6076 23.5566 28.8609 23.4597 29.1142 23.3629C29.3749 23.266 29.5686 23.3703 29.658 23.6013C30.0827 24.756 30.5297 25.9108 30.8873 27.0878C31.0884 27.7509 30.9022 28.3618 30.2391 28.7492C29.9262 28.9354 29.6208 29.144 29.293 29.3526C29.2185 28.7715 29.1887 28.2277 29.0695 27.7062C28.7938 26.5068 28.4884 25.3073 28.1755 24.1153C28.101 23.8769 28.1159 23.7354 28.3543 23.6534Z" fill="#FDFCFC"/>
<path d="M16.9194 40.6992C16.9194 41.1089 17.1429 41.3697 17.508 41.3399C18.2381 41.2803 18.9682 41.243 19.6834 41.1089C21.4043 40.796 22.9837 40.0883 24.5407 39.3284C25.6135 38.7994 26.6416 38.2109 27.5058 37.3616C28.1465 36.7284 28.7276 36.0504 28.8245 35.1043C28.8692 34.6722 28.9362 34.2401 28.9511 33.808C28.9958 32.3701 29.1299 30.9248 29.0182 29.5019C28.8766 27.6916 28.4669 25.911 27.9528 24.1603C27.9081 23.9964 27.8411 23.825 27.7368 23.6984C27.5058 23.4078 27.1035 23.1992 26.6193 23.3482C25.025 23.8474 23.5424 24.5253 22.2983 25.6577C21.8215 26.0898 21.3447 26.5294 21.1659 27.185C20.9052 28.1535 20.6295 29.1145 20.3464 30.0756C20.3092 30.2097 20.19 30.3512 20.0708 30.4182C19.1693 30.9099 18.2604 31.3942 17.3515 31.8635C17.0759 32.0051 16.8971 32.1913 16.8896 32.5191C16.8896 33.3684 16.8971 34.2252 16.8971 35.0745C16.9045 35.2384 16.912 35.3948 16.912 35.5587C16.9194 37.2797 16.9194 38.9857 16.9194 40.6992ZM20.0708 34.4263C21.747 33.5174 23.4158 32.6011 25.092 31.6922C25.3155 31.5655 25.5539 31.4538 25.8594 31.2973C25.9264 31.64 26.0084 31.9306 26.0456 32.2211C26.1648 33.2492 26.1648 34.2699 25.8072 35.2682C25.5465 36.0057 25.1367 36.5794 24.3768 36.9221C23.1029 37.4957 21.8588 38.1438 20.6072 38.7622C20.041 39.0453 19.8249 38.9186 19.8324 38.2928C19.8324 37.153 19.8398 36.0057 19.8324 34.8659C19.8249 34.6647 19.8771 34.5306 20.0708 34.4263Z" fill="#EE2F60"/>
<path d="M35.5664 14.23C35.8272 14.7291 36.0879 15.2059 36.3114 15.6976C36.4008 15.8838 36.4977 15.9434 36.6988 15.9583C37.4066 15.9956 38.1143 16.0328 38.8146 16.1148C39.8054 16.234 40.7888 16.3979 41.8244 16.5469C41.653 15.9583 41.4966 15.3698 41.3029 14.8036C41.2656 14.6993 41.0943 14.6025 40.9751 14.5876C40.0289 14.4609 39.0828 14.3119 38.1367 14.2449C37.2948 14.1853 36.4381 14.23 35.5664 14.23Z" fill="#FDFCFC"/>
<path d="M22.3948 7.77076C22.9312 7.34612 23.4602 6.91402 24.0264 6.54897C24.6894 6.12432 25.3897 5.75927 26.0826 5.36443C25.6728 5.05153 25.2556 4.73118 24.8235 4.42573C24.7565 4.38103 24.6075 4.40338 24.5255 4.44808C23.1994 5.15583 21.9777 6.02002 20.7559 7.04812C21.1656 7.31631 21.553 7.55471 21.9181 7.82291C22.1117 7.94211 22.2309 7.90486 22.3948 7.77076Z" fill="#FDFCFC"/>
<path d="M30.969 14.8177C30.5295 14.9444 30.0825 15.0338 29.6504 15.1828C28.9054 15.4286 28.1678 15.6968 27.4229 15.965C27.7208 16.2779 27.989 16.5312 28.2274 16.8143C28.3764 16.9856 28.5105 16.9856 28.7117 16.9409C29.8515 16.6802 30.9988 16.4418 32.161 16.1959C31.9301 15.8234 31.6693 15.4062 31.4086 14.9891C31.3043 14.8028 31.1627 14.7581 30.969 14.8177Z" fill="#FDFCFC"/>
<path d="M17.2167 10.6757C16.5536 11.5921 15.9129 12.5233 15.2275 13.5067C15.7267 13.611 16.1215 13.6929 16.5238 13.76C16.6058 13.7749 16.7473 13.7227 16.792 13.6557C17.4253 12.7915 18.0511 11.9199 18.6918 11.0333C18.3193 10.8843 17.9393 10.7279 17.5594 10.6012C17.4551 10.5714 17.2688 10.6087 17.2167 10.6757Z" fill="#FDFCFC"/>
<path d="M4.71589 18.953C4.82019 19.5937 4.93194 20.2344 5.05114 20.9273C5.40128 20.6889 5.69183 20.4877 5.97493 20.2791C6.03453 20.2344 6.08667 20.145 6.08667 20.078C5.98983 18.8711 5.88553 17.6716 5.77378 16.4424C5.51303 16.7106 5.27463 16.9862 4.99154 17.2097C4.62649 17.4928 4.48494 17.8057 4.61904 18.2602C4.68609 18.4837 4.67864 18.7221 4.71589 18.953Z" fill="#FDFCFC"/>
<path d="M13.9314 19.2063C14.0133 19.1989 14.1251 19.102 14.1549 19.0201C14.4529 18.2155 14.7434 17.4109 15.0489 16.569C14.6615 16.5318 14.289 16.4871 13.8494 16.4424C13.5812 17.3513 13.3056 18.2676 13.0225 19.2063C13.3652 19.2138 13.6483 19.2287 13.9314 19.2063Z" fill="#FDFCFC"/>
<path d="M24.6149 17.4259C24.1008 17.8059 23.5719 18.1709 23.0579 18.5583C22.8046 18.7446 22.5811 18.968 22.3203 19.1915C22.6109 19.3778 22.8567 19.5342 23.0504 19.6683C23.922 19.0872 24.7639 18.5285 25.6057 17.9623C25.4418 17.8133 25.2407 17.6569 25.0842 17.4781C24.9278 17.2918 24.7937 17.2918 24.6149 17.4259Z" fill="#FDFCFC"/>
<path d="M6.51894 25.8515C6.75733 25.7323 6.96593 25.6354 7.15218 25.5385C6.92123 24.8159 6.70518 24.123 6.47424 23.4004C6.21349 23.5345 5.98999 23.6462 5.74414 23.7729C6.00489 24.4806 6.25819 25.1586 6.51894 25.8515Z" fill="#FDFCFC"/>
<path d="M19.5713 22.3129C19.832 22.4619 20.0406 22.5885 20.279 22.7226C20.6962 22.216 21.0836 21.7467 21.4934 21.2476C21.2624 21.0911 21.0389 20.9347 20.7782 20.7559C20.3684 21.2848 19.981 21.784 19.5713 22.3129Z" fill="#FDFCFC"/>
<path d="M13.4773 21.873C13.2166 21.873 12.9633 21.873 12.6504 21.873C12.6504 22.5435 12.6504 23.1917 12.6504 23.8622C12.8739 23.8398 13.0974 23.8249 13.3358 23.8026C13.3805 23.1544 13.4252 22.5212 13.4773 21.873Z" fill="#FDFCFC"/>
<path d="M18.3789 25.6135C18.6471 25.1888 18.9079 24.7791 19.1835 24.3544C18.96 24.2129 18.7663 24.0937 18.5428 23.9521C18.2895 24.4513 18.0437 24.9281 17.7979 25.4123C18.0213 25.4794 18.1927 25.5464 18.3789 25.6135Z" fill="#FDFCFC"/>
<path d="M8.81373 28.9957C8.53808 28.5338 8.27733 28.1017 8.01658 27.6621C7.86014 27.7664 7.72604 27.8484 7.55469 27.9601C7.82289 28.4295 8.07618 28.8839 8.34438 29.3533C8.53063 29.2192 8.66473 29.1149 8.81373 28.9957Z" fill="#FDFCFC"/>
<path d="M13.2764 27.5949C13.2764 27.1107 13.2764 26.6562 13.2764 26.1943C13.0753 26.2092 12.9188 26.2167 12.6953 26.2316C12.7698 26.7605 12.8369 27.2448 12.9039 27.7439C13.0753 27.6769 13.2019 27.6247 13.2764 27.5949Z" fill="#FDFCFC"/>
<path d="M16.8738 28.4882C17.0601 28.0859 17.2389 27.706 17.4251 27.3111C17.2836 27.2515 17.142 27.1845 16.9558 27.1025C16.7993 27.557 16.6578 27.9816 16.5088 28.4286C16.6578 28.4584 16.777 28.4733 16.8738 28.4882Z" fill="#FDFCFC"/>
<path d="M9.6778 30.2988C9.55115 30.3808 9.4394 30.4553 9.29785 30.5447C9.6182 30.8054 9.9013 31.0513 10.2068 31.3046C10.326 31.1705 10.4079 31.0662 10.4973 30.9619C10.2068 30.716 9.93855 30.5074 9.6778 30.2988Z" fill="#FDFCFC"/>
<path d="M38.1666 31.3871C37.4589 30.1504 36.7139 28.9361 35.9912 27.7068C35.6858 27.1853 35.4027 26.6564 35.1196 26.1572C34.4565 27.2375 33.8009 28.3028 33.1453 29.3681C32.6462 30.1802 32.0949 30.9624 31.6777 31.8192C30.9625 33.2719 30.7688 34.8141 31.3946 36.3487C32.1247 38.1442 33.7637 39.2244 35.6709 38.9115C38.0996 38.5167 39.3809 36.0805 39.0904 33.9126C38.9787 33.0112 38.6211 32.1768 38.1666 31.3871Z" fill="#FDBF16"/>
<path d="M34.7539 24.0481C34.8955 23.9438 35.0817 23.8618 35.2531 23.8618C37.041 23.8171 38.8216 23.7948 40.6096 23.765C40.9076 23.7575 41.1981 23.7352 41.4961 23.7426C41.8015 23.7501 41.9133 23.616 41.8909 23.318C41.8462 22.7294 41.809 22.1409 41.7717 21.5523C41.7568 21.4629 41.727 21.3959 41.6823 21.3512C41.5855 21.2543 41.4365 21.2394 41.2726 21.2394C39.0153 21.2096 36.7579 21.1649 34.5006 21.1426C34.3293 21.1426 34.1356 21.2022 33.9866 21.2916C33.0479 21.8429 32.1166 22.4091 31.178 22.9678C30.7682 23.2137 30.3585 23.4595 29.9785 23.683C30.3659 24.7111 30.7459 25.6945 31.1258 26.7002C32.3252 25.8137 33.5321 24.9272 34.7539 24.0481Z" fill="#EE2F60"/>
<path d="M29.7926 38.4493C28.6751 38.4418 27.7588 39.3507 27.7588 40.4756C27.7588 41.5931 28.6677 42.5095 29.7852 42.5095C30.8952 42.5095 31.8265 41.5857 31.8339 40.4831C31.8339 39.3731 30.9101 38.4567 29.7926 38.4493Z" fill="#FDBF16"/>
<path d="M41.8832 23.3181C41.9056 23.6161 41.7938 23.7502 41.4884 23.7428C41.1978 23.7353 40.8998 23.7577 40.6018 23.7651C40.4677 24.1451 40.2815 24.525 40.207 24.9199C40.0505 25.7692 40.1399 26.5812 40.8104 27.2219C41.4064 27.7955 42.2259 27.7881 42.7995 27.1995C43.3583 26.6259 43.5594 25.9182 43.403 25.1508C43.2242 24.2419 42.7846 23.4522 42.3451 22.6551C42.2632 22.5135 42.1812 22.3645 42.1067 22.223C41.9875 22.0069 41.8758 21.7909 41.764 21.5674C41.8087 22.141 41.8385 22.7296 41.8832 23.3181Z" fill="#FDBF16"/>
<path d="M29.0626 27.6987C29.1818 28.2202 29.2116 28.7641 29.2861 29.3452C29.6139 29.1291 29.9193 28.9205 30.2322 28.7417C30.8879 28.3543 31.0816 27.7434 30.8804 27.0804C30.5228 25.9033 30.0758 24.7486 29.6511 23.5938C29.5692 23.3629 29.368 23.2586 29.1073 23.3554C28.854 23.4523 28.6007 23.5491 28.3474 23.646C28.109 23.7354 28.1015 23.8695 28.1611 24.1079C28.4889 25.3073 28.7944 26.4993 29.0626 27.6987Z" fill="#EE2F60"/>
<path d="M14.2449 37.0117C14.0437 37.3395 13.8873 37.6226 13.7159 37.8908C13.5371 38.1739 13.3509 38.4496 13.1796 38.7401C12.9337 39.1424 12.8443 39.5894 12.889 40.0587C12.9486 40.6547 13.4254 41.1837 13.999 41.3029C14.5354 41.4146 15.1314 41.1017 15.4071 40.5504C15.6455 40.0736 15.6604 39.5819 15.422 39.12C15.0569 38.4197 14.6546 37.7418 14.2449 37.0117Z" fill="#FDBF16"/>
<path d="M24.3392 40.9522C23.5794 40.9448 22.9685 41.5482 22.961 42.3156C22.9536 43.1127 23.5347 43.7161 24.3243 43.7161C25.0842 43.7161 25.7026 43.1202 25.7249 42.3677C25.7324 41.6153 25.0991 40.9597 24.3392 40.9522Z" fill="#FDBF16"/>
<path d="M40.8783 29.0996C40.0961 29.0996 39.4926 29.7105 39.5001 30.4928C39.5075 31.2527 40.111 31.8561 40.8783 31.8561C41.6382 31.8561 42.2565 31.2527 42.264 30.5002C42.2714 29.718 41.6605 29.0996 40.8783 29.0996Z" fill="#FDBF16"/>
<path d="M18.975 41.8837C18.4609 41.8614 18.0363 42.2413 18.0065 42.7554C17.9767 43.2694 18.3641 43.6941 18.8781 43.7164C19.3996 43.7388 19.8243 43.3588 19.8466 42.8522C19.869 42.3307 19.489 41.9061 18.975 41.8837Z" fill="#FDBF16"/>
<path d="M10.8773 37.2198C10.4452 37.2124 10.0876 37.5476 10.0802 37.9723C10.0727 38.382 10.4303 38.7619 10.8475 38.7694C11.2647 38.7843 11.6298 38.4267 11.6372 38.0021C11.6447 37.5625 11.3169 37.2273 10.8773 37.2198Z" fill="#FDBF16"/>
<path d="M19.832 38.2924C19.832 38.9107 20.0406 39.0374 20.6068 38.7617C21.8584 38.1434 23.1026 37.4952 24.3765 36.9216C25.1364 36.5789 25.5461 36.0127 25.8069 35.2677C26.157 34.2694 26.157 33.2488 26.0453 32.2207C26.008 31.9227 25.9335 31.6321 25.859 31.2969C25.5461 31.4533 25.3152 31.5651 25.0917 31.6917C23.4154 32.6006 21.7467 33.517 20.0704 34.4258C19.8767 34.5301 19.832 34.6642 19.832 34.8654C19.832 36.0052 19.832 37.1525 19.832 38.2924ZM20.5249 34.4407C22.0074 33.6436 23.4899 32.8539 24.965 32.0568C25.2034 31.9301 25.4269 31.7662 25.6877 31.6023C25.7026 31.6545 25.7249 31.7066 25.7398 31.7588C26.008 32.8614 25.2481 34.2992 24.1977 34.6791C22.9312 35.1336 21.6126 35.3347 20.2716 35.4167C20.212 35.4167 20.1524 35.4092 20.1002 35.4018C19.981 34.7313 19.9736 34.7313 20.5249 34.4407Z" fill="#FDFCFC"/>
<path d="M20.2714 35.4169C21.6124 35.335 22.931 35.1338 24.1975 34.6794C25.248 34.2994 26.0078 32.8616 25.7396 31.759C25.7247 31.7068 25.7098 31.6621 25.6875 31.6025C25.4267 31.7664 25.2033 31.9229 24.9649 32.057C23.4823 32.8541 21.9998 33.6438 20.5247 34.441C19.9734 34.739 19.9734 34.739 20.1 35.4095C20.1596 35.4095 20.2192 35.4169 20.2714 35.4169Z" fill="#EE2F60"/>
</g>
<defs>
<clipPath id="clip0_343:309">
<rect width="48" height="48" fill="white"/>
</clipPath>
</defs>
</svg>
