<svg width="48" height="60" viewBox="0 0 48 60" fill="none" xmlns="http://www.w3.org/2000/svg">
<g clip-path="url(#clip0_995_30240)">
<path d="M46.1863 22.5857C46.1876 24.0161 46.0536 25.4435 45.786 26.8487C43.1962 28.4618 39.5476 30.113 35.2606 29.9409C26.9168 29.6006 23.6525 22.6477 15.5568 21.7191C12.2185 21.3368 7.45716 21.9092 1.30885 26.2163C0.806946 23.1371 0.948383 19.9874 1.72425 16.9657C2.50011 13.9439 3.89358 11.1157 5.81679 8.65927C7.74001 6.20283 10.1513 4.17146 12.8986 2.69322C15.6459 1.21498 18.6696 0.321939 21.7792 0.0703757C24.8888 -0.181188 28.0168 0.214191 30.966 1.23159C33.9152 2.24899 36.6217 3.86633 38.9147 5.98168C41.2078 8.09702 43.0378 10.6645 44.2893 13.5222C45.5408 16.3799 46.1867 19.466 46.1863 22.5857V22.5857Z" fill="#F8B618"/>
<path d="M4.29881 46.2965C3.93415 46.2965 3.58442 46.1516 3.32656 45.8938C3.06871 45.6359 2.92385 45.2862 2.92385 44.9215V35.2087C2.91679 35.0236 2.94714 34.839 3.01311 34.6659C3.07908 34.4928 3.1793 34.3348 3.30776 34.2013C3.43623 34.0679 3.59031 33.9617 3.76077 33.8892C3.93123 33.8167 4.11457 33.7793 4.29982 33.7793C4.48506 33.7793 4.66839 33.8167 4.83885 33.8892C5.00931 33.9617 5.16339 34.0679 5.29186 34.2013C5.42032 34.3348 5.52053 34.4928 5.5865 34.6659C5.65246 34.839 5.68283 35.0236 5.67577 35.2087V44.9275C5.67418 45.2915 5.52835 45.64 5.27023 45.8966C5.01212 46.1532 4.66279 46.297 4.29881 46.2965Z" fill="#2ABDBC"/>
<path d="M9.83492 47.0169C9.65419 47.0169 9.47523 46.9813 9.30829 46.9121C9.14134 46.8428 8.98968 46.7414 8.86198 46.6135C8.73427 46.4856 8.63302 46.3338 8.56404 46.1667C8.49506 45.9997 8.4597 45.8207 8.45996 45.6399V32.2066C8.47354 31.8507 8.62445 31.514 8.88101 31.267C9.13757 31.02 9.47982 30.8821 9.83593 30.8821C10.192 30.8821 10.5343 31.02 10.7908 31.267C11.0474 31.514 11.1983 31.8507 11.2119 32.2066V45.6359C11.2124 45.8171 11.1772 45.9966 11.1082 46.1641C11.0393 46.3316 10.9379 46.4839 10.81 46.6122C10.6821 46.7405 10.5301 46.8423 10.3628 46.9117C10.1955 46.9812 10.0161 47.0169 9.83492 47.0169V47.0169Z" fill="#2ABDBC"/>
<path d="M15.3653 59.9999C15.0001 59.9999 14.6498 59.8549 14.3916 59.5966C14.1334 59.3384 13.9883 58.9882 13.9883 58.623V31.9563C13.9812 31.7712 14.0116 31.5866 14.0776 31.4135C14.1435 31.2404 14.2438 31.0824 14.3722 30.9489C14.5007 30.8154 14.6548 30.7093 14.8252 30.6368C14.9957 30.5642 15.179 30.5269 15.3643 30.5269C15.5495 30.5269 15.7329 30.5642 15.9033 30.6368C16.0738 30.7093 16.2279 30.8154 16.3563 30.9489C16.4848 31.0824 16.585 31.2404 16.651 31.4135C16.7169 31.5866 16.7473 31.7712 16.7402 31.9563V58.625C16.7397 58.9895 16.5947 59.3389 16.3369 59.5966C16.0792 59.8544 15.7298 59.9994 15.3653 59.9999V59.9999Z" fill="#2ABDBC"/>
<path d="M36.2069 35.8891C35.9327 35.8891 35.6606 35.8891 35.3864 35.8671C30.8292 35.6369 27.781 33.5715 24.829 31.5741C22.2672 29.8409 19.8495 28.2017 16.4451 27.7094C12.1021 27.081 7.29469 28.578 2.1631 32.1605C1.86399 32.3694 1.49416 32.4509 1.13497 32.3871C0.775769 32.3233 0.456632 32.1194 0.24776 31.8203C0.0388884 31.5212 -0.0425973 31.1513 0.0212098 30.7921C0.0850168 30.4329 0.288892 30.1138 0.588001 29.9049C6.31201 25.9021 11.7798 24.253 16.8394 24.9855C20.8682 25.5699 23.6662 27.4632 26.3721 29.2945C29.13 31.1638 31.7358 32.927 35.5265 33.1192C38.8688 33.2873 42.3312 32.2005 45.7937 29.8869C46.0976 29.6887 46.4675 29.6184 46.8229 29.6914C47.1783 29.7643 47.4906 29.9747 47.6918 30.2766C47.893 30.5786 47.9669 30.9478 47.8974 31.3039C47.8279 31.66 47.6207 31.9743 47.3207 32.1785C43.6201 34.6422 39.8855 35.8891 36.2069 35.8891Z" fill="#2ABDBC"/>
<path d="M20.9043 45.3279C20.5394 45.3273 20.1897 45.182 19.9319 44.9238C19.6741 44.6657 19.5293 44.3157 19.5293 43.9509V34.3582C19.5429 34.0023 19.6938 33.6656 19.9503 33.4186C20.2069 33.1717 20.5492 33.0337 20.9053 33.0337C21.2614 33.0337 21.6036 33.1717 21.8602 33.4186C22.1167 33.6656 22.2676 34.0023 22.2812 34.3582V43.9509C22.2812 44.1317 22.2456 44.3108 22.1764 44.4778C22.1072 44.6449 22.0058 44.7967 21.8779 44.9245C21.75 45.0524 21.5982 45.1538 21.4312 45.223C21.2641 45.2922 21.0851 45.3279 20.9043 45.3279Z" fill="#2ABDBC"/>
<path d="M26.4404 41.5752C26.0756 41.5752 25.7257 41.4304 25.4675 41.1726C25.2093 40.9148 25.064 40.5651 25.0635 40.2002V37.5984C25.0771 37.2425 25.228 36.9058 25.4845 36.6588C25.7411 36.4119 26.0833 36.2739 26.4394 36.2739C26.7955 36.2739 27.1378 36.4119 27.3944 36.6588C27.6509 36.9058 27.8018 37.2425 27.8154 37.5984V40.2002C27.8154 40.5649 27.6706 40.9146 27.4127 41.1725C27.1548 41.4303 26.8051 41.5752 26.4404 41.5752V41.5752Z" fill="#2ABDBC"/>
<path d="M31.9765 54.6023C31.6119 54.6023 31.2622 54.4574 31.0043 54.1996C30.7465 53.9417 30.6016 53.592 30.6016 53.2273V39.7139C30.5945 39.5288 30.6249 39.3441 30.6909 39.171C30.7568 38.9979 30.857 38.8399 30.9855 38.7064C31.114 38.573 31.268 38.4668 31.4385 38.3943C31.609 38.3218 31.7923 38.2844 31.9775 38.2844C32.1628 38.2844 32.3461 38.3218 32.5166 38.3943C32.6871 38.4668 32.8411 38.573 32.9696 38.7064C33.0981 38.8399 33.1983 38.9979 33.2642 39.171C33.3302 39.3441 33.3606 39.5288 33.3535 39.7139V53.2213C33.3543 53.4025 33.3193 53.5821 33.2504 53.7498C33.1815 53.9174 33.0802 54.0698 32.9522 54.1981C32.8242 54.3265 32.6722 54.4283 32.5047 54.4976C32.3373 54.567 32.1578 54.6025 31.9765 54.6023Z" fill="#2ABDBC"/>
<path d="M37.5108 53.1271C37.1459 53.1271 36.796 52.9823 36.5378 52.7245C36.2796 52.4667 36.1343 52.117 36.1338 51.7522V40.134C36.1474 39.7782 36.2983 39.4414 36.5548 39.1945C36.8114 38.9475 37.1536 38.8096 37.5098 38.8096C37.8659 38.8096 38.2081 38.9475 38.4647 39.1945C38.7212 39.4414 38.8721 39.7782 38.8857 40.134V51.7522C38.8857 52.1168 38.7408 52.4666 38.483 52.7244C38.2251 52.9823 37.8754 53.1271 37.5108 53.1271Z" fill="#2ABDBC"/>
<path d="M43.0459 45.4156C42.6811 45.4156 42.3311 45.2708 42.0729 45.013C41.8148 44.7552 41.6695 44.4055 41.6689 44.0407V38.8731C41.6825 38.5172 41.8334 38.1805 42.09 37.9335C42.3465 37.6865 42.6888 37.5486 43.0449 37.5486C43.401 37.5486 43.7433 37.6865 43.9998 37.9335C44.2564 38.1805 44.4073 38.5172 44.4209 38.8731V44.0407C44.4203 44.4052 44.2753 44.7546 44.0176 45.0123C43.7598 45.2701 43.4104 45.4151 43.0459 45.4156V45.4156Z" fill="#2ABDBC"/>
</g>
<defs>
<clipPath id="clip0_995_30240">
<rect width="47.9336" height="60" fill="white"/>
</clipPath>
</defs>
</svg>
