<svg width="60" height="60" viewBox="0 0 60 60" fill="none" xmlns="http://www.w3.org/2000/svg">
<circle cx="30" cy="30" r="30" fill="#0E122F"/>
<g clip-path="url(#clip0_995_30266)">
<path d="M47.4089 24.3157C47.4099 25.4124 47.3072 26.5067 47.102 27.584C45.1165 28.8207 42.3193 30.0866 39.0326 29.9546C32.6356 29.6938 30.133 24.3633 23.9263 23.6513C21.3669 23.3582 17.7166 23.7971 13.0029 27.0991C12.6181 24.7385 12.7265 22.3237 13.3214 20.007C13.9162 17.6904 14.9845 15.522 16.459 13.6388C17.9335 11.7555 19.7821 10.1981 21.8884 9.06479C23.9946 7.93148 26.3128 7.24681 28.6969 7.05395C31.0809 6.86108 33.479 7.1642 35.7401 7.94421C38.0011 8.72422 40.0761 9.96418 41.8341 11.5859C43.5921 13.2077 44.9951 15.1761 45.9546 17.367C46.914 19.5579 47.4092 21.9239 47.4089 24.3157V24.3157Z" fill="#F8B618"/>
<path d="M15.2961 42.494C15.0165 42.494 14.7484 42.3829 14.5507 42.1852C14.353 41.9875 14.242 41.7194 14.242 41.4398V33.9934C14.2366 33.8514 14.2598 33.7099 14.3104 33.5772C14.361 33.4445 14.4378 33.3233 14.5363 33.221C14.6348 33.1187 14.7529 33.0373 14.8836 32.9817C15.0143 32.9261 15.1549 32.8975 15.2969 32.8975C15.4389 32.8975 15.5795 32.9261 15.7101 32.9817C15.8408 33.0373 15.959 33.1187 16.0574 33.221C16.1559 33.3233 16.2328 33.4445 16.2833 33.5772C16.3339 33.7099 16.3572 33.8514 16.3518 33.9934V41.4445C16.3506 41.7235 16.2388 41.9907 16.0409 42.1874C15.843 42.3841 15.5752 42.4944 15.2961 42.494Z" fill="#2ABDBC"/>
<path d="M19.5405 43.0463C19.4019 43.0463 19.2647 43.019 19.1367 42.9659C19.0087 42.9128 18.8924 42.8351 18.7945 42.737C18.6966 42.639 18.619 42.5226 18.5661 42.3945C18.5132 42.2664 18.4861 42.1292 18.4863 41.9906V31.6917C18.4967 31.4189 18.6124 31.1607 18.8091 30.9714C19.0058 30.782 19.2682 30.6763 19.5412 30.6763C19.8142 30.6763 20.0766 30.782 20.2733 30.9714C20.47 31.1607 20.5857 31.4189 20.5961 31.6917V41.9876C20.5965 42.1265 20.5695 42.2641 20.5167 42.3925C20.4638 42.5209 20.3861 42.6377 20.288 42.736C20.19 42.8344 20.0734 42.9124 19.9452 42.9657C19.8169 43.0189 19.6794 43.0463 19.5405 43.0463V43.0463Z" fill="#2ABDBC"/>
<path d="M23.7801 52.9998C23.5001 52.9998 23.2316 52.8886 23.0336 52.6906C22.8356 52.4927 22.7244 52.2241 22.7244 51.9442V31.4997C22.719 31.3578 22.7423 31.2163 22.7928 31.0835C22.8434 30.9508 22.9202 30.8297 23.0187 30.7274C23.1172 30.6251 23.2353 30.5437 23.366 30.4881C23.4967 30.4325 23.6373 30.4038 23.7793 30.4038C23.9213 30.4038 24.0619 30.4325 24.1926 30.4881C24.3233 30.5437 24.4414 30.6251 24.5399 30.7274C24.6384 30.8297 24.7152 30.9508 24.7658 31.0835C24.8163 31.2163 24.8396 31.3578 24.8342 31.4997V51.9457C24.8338 52.2251 24.7226 52.493 24.525 52.6906C24.3274 52.8882 24.0595 52.9994 23.7801 52.9998V52.9998Z" fill="#2ABDBC"/>
<path d="M39.7587 34.515C39.5484 34.515 39.3398 34.515 39.1295 34.4981C35.6357 34.3216 33.2988 32.7381 31.0355 31.2068C29.0715 29.878 27.2179 28.6213 24.6079 28.2438C21.2783 27.762 17.5926 28.9098 13.6584 31.6564C13.4291 31.8165 13.1455 31.879 12.8701 31.8301C12.5948 31.7811 12.3501 31.6248 12.1899 31.3955C12.0298 31.1662 11.9673 30.8827 12.0163 30.6073C12.0652 30.3319 12.2215 30.0872 12.4508 29.9271C16.8392 26.8583 21.0312 25.5939 24.9102 26.1555C27.999 26.6035 30.1441 28.0551 32.2186 29.4591C34.333 30.8922 36.3308 32.244 39.2369 32.3913C41.7994 32.5202 44.4539 31.687 47.1085 29.9133C47.3415 29.7613 47.625 29.7074 47.8975 29.7634C48.1701 29.8193 48.4095 29.9806 48.5637 30.2121C48.718 30.4436 48.7746 30.7266 48.7214 30.9996C48.6681 31.2727 48.5092 31.5136 48.2792 31.6702C45.4421 33.559 42.5789 34.515 39.7587 34.515Z" fill="#2ABDBC"/>
<path d="M28.0268 41.7512C27.7471 41.7508 27.4789 41.6394 27.2813 41.4415C27.0837 41.2435 26.9727 40.9753 26.9727 40.6955V33.3411C26.9831 33.0683 27.0987 32.8101 27.2954 32.6208C27.4921 32.4315 27.7545 32.3257 28.0276 32.3257C28.3006 32.3257 28.563 32.4315 28.7597 32.6208C28.9564 32.8101 29.0721 33.0683 29.0825 33.3411V40.6955C29.0825 40.8342 29.0551 40.9714 29.0021 41.0995C28.949 41.2276 28.8713 41.344 28.7733 41.442C28.6752 41.54 28.5589 41.6178 28.4308 41.6708C28.3027 41.7239 28.1654 41.7512 28.0268 41.7512Z" fill="#2ABDBC"/>
<path d="M32.2715 38.8744C31.9918 38.8744 31.7235 38.7633 31.5256 38.5657C31.3276 38.3681 31.2162 38.0999 31.2158 37.8202V35.8255C31.2262 35.5527 31.3419 35.2945 31.5386 35.1052C31.7353 34.9158 31.9977 34.8101 32.2707 34.8101C32.5437 34.8101 32.8062 34.9158 33.0028 35.1052C33.1995 35.2945 33.3152 35.5527 33.3256 35.8255V37.8202C33.3256 38.0998 33.2146 38.3679 33.0169 38.5656C32.8192 38.7633 32.5511 38.8744 32.2715 38.8744V38.8744Z" fill="#2ABDBC"/>
<path d="M36.5158 48.8617C36.2363 48.8617 35.9681 48.7506 35.7705 48.5529C35.5728 48.3552 35.4617 48.0871 35.4617 47.8075V37.4472C35.4563 37.3053 35.4796 37.1638 35.5301 37.031C35.5807 36.8983 35.6575 36.7772 35.756 36.6749C35.8545 36.5726 35.9727 36.4912 36.1033 36.4356C36.234 36.38 36.3746 36.3513 36.5166 36.3513C36.6586 36.3513 36.7992 36.38 36.9299 36.4356C37.0606 36.4912 37.1787 36.5726 37.2772 36.6749C37.3757 36.7772 37.4525 36.8983 37.5031 37.031C37.5536 37.1638 37.5769 37.3053 37.5715 37.4472V47.8029C37.5721 47.9419 37.5453 48.0796 37.4925 48.2081C37.4397 48.3366 37.362 48.4534 37.2638 48.5518C37.1657 48.6502 37.0491 48.7283 36.9208 48.7814C36.7924 48.8346 36.6548 48.8619 36.5158 48.8617Z" fill="#2ABDBC"/>
<path d="M40.7578 47.731C40.4781 47.731 40.2098 47.6199 40.0119 47.4223C39.814 47.2246 39.7026 46.9565 39.7021 46.6768V37.7696C39.7126 37.4968 39.8283 37.2386 40.025 37.0493C40.2216 36.8599 40.484 36.7542 40.7571 36.7542C41.0301 36.7542 41.2925 36.8599 41.4892 37.0493C41.6858 37.2386 41.8015 37.4968 41.812 37.7696V46.6768C41.812 46.9564 41.7009 47.2245 41.5032 47.4222C41.3055 47.6199 41.0374 47.731 40.7578 47.731Z" fill="#2ABDBC"/>
<path d="M45.002 41.8188C44.7222 41.8188 44.454 41.7077 44.256 41.5101C44.0581 41.3125 43.9467 41.0443 43.9463 40.7646V36.8028C43.9567 36.53 44.0724 36.2718 44.2691 36.0825C44.4658 35.8931 44.7282 35.7874 45.0012 35.7874C45.2742 35.7874 45.5366 35.8931 45.7333 36.0825C45.93 36.2718 46.0457 36.53 46.0561 36.8028V40.7646C46.0557 41.0441 45.9445 41.312 45.7469 41.5096C45.5493 41.7072 45.2814 41.8184 45.002 41.8188V41.8188Z" fill="#2ABDBC"/>
</g>
<defs>
<clipPath id="clip0_995_30266">
<rect width="36.7491" height="46" fill="white" transform="translate(12 7)"/>
</clipPath>
</defs>
</svg>
